<svg width="51" height="50" viewBox="0 0 51 50" fill="none" xmlns="http://www.w3.org/2000/svg">
<mask id="mask0_2189_12061" style="mask-type:alpha" maskUnits="userSpaceOnUse" x="0" y="0" width="51" height="50">
<path d="M0.569336 0H50.5693V50H0.569336V0Z" fill="url(#paint0_radial_2189_12061)"/>
</mask>
<g mask="url(#mask0_2189_12061)">
</g>
<g clip-path="url(#clip0_2189_12061)">
<g filter="url(#filter0_d_2189_12061)">
<path d="M25.5693 50C39.3765 50 50.5693 38.8071 50.5693 25C50.5693 11.1929 39.3765 0 25.5693 0C11.7622 0 0.569336 11.1929 0.569336 25C0.569336 38.8071 11.7622 50 25.5693 50Z" fill="url(#paint1_linear_2189_12061)"/>
</g>
<path d="M22.1954 13.2979H18.1226V36.7021C19.478 36.4988 20.8356 36.3021 22.1954 36.1121V28.5279C22.1954 26.0122 23.8646 23.9385 26.2682 23.9385C28.4381 23.9385 30.0072 25.2304 30.0072 28.2899V35.0977C31.3627 34.9351 32.7204 34.7791 34.08 34.6297V28.2559C34.08 23.3266 32.0102 20.097 27.3365 20.097C25.467 20.097 23.6642 20.6749 22.1954 22.6127V13.2979Z" fill="white"/>
</g>
<defs>
<filter id="filter0_d_2189_12061" x="-1.53066" y="-1.05" width="54.2" height="54.2" filterUnits="userSpaceOnUse" color-interpolation-filters="sRGB">
<feFlood flood-opacity="0" result="BackgroundImageFix"/>
<feColorMatrix in="SourceAlpha" type="matrix" values="0 0 0 0 0 0 0 0 0 0 0 0 0 0 0 0 0 0 127 0" result="hardAlpha"/>
<feOffset dy="1.05"/>
<feGaussianBlur stdDeviation="1.05"/>
<feComposite in2="hardAlpha" operator="out"/>
<feColorMatrix type="matrix" values="0 0 0 0 0 0 0 0 0 0 0 0 0 0 0 0 0 0 0.06 0"/>
<feBlend mode="normal" in2="BackgroundImageFix" result="effect1_dropShadow_2189_12061"/>
<feBlend mode="normal" in="SourceGraphic" in2="effect1_dropShadow_2189_12061" result="shape"/>
</filter>
<radialGradient id="paint0_radial_2189_12061" cx="0" cy="0" r="1" gradientUnits="userSpaceOnUse" gradientTransform="translate(25.5693 25) rotate(45) scale(35.3553)">
<stop stop-color="white"/>
<stop offset="1"/>
</radialGradient>
<linearGradient id="paint1_linear_2189_12061" x1="0.569336" y1="25" x2="50.5693" y2="25" gradientUnits="userSpaceOnUse">
<stop stop-color="#6C2CBE"/>
<stop offset="1" stop-color="#1534EF"/>
</linearGradient>
<clipPath id="clip0_2189_12061">
<rect x="0.569336" width="50" height="50" rx="5" fill="white"/>
</clipPath>
</defs>
</svg>
