<svg width="107" height="21" viewBox="0 0 107 21" fill="none" xmlns="http://www.w3.org/2000/svg">
<path fill-rule="evenodd" clip-rule="evenodd" d="M3.57432 0H0V20.26C1.18956 20.0839 2.38101 19.9136 3.57432 19.7492V13.1842C3.57432 11.0065 5.03921 9.21128 7.14865 9.21128C9.053 9.21128 10.43 10.3296 10.43 12.9782V18.8711C11.6197 18.7303 12.8111 18.5952 14.0043 18.466V12.9488C14.0043 8.68156 12.1879 5.8858 8.08618 5.8858C6.4455 5.8858 4.86343 6.3861 3.57432 8.06355V0ZM37.3765 16.6939C36.1835 16.7459 34.9921 16.8036 33.8022 16.8672V6.06192H37.1128L37.3765 7.82766C38.1382 6.35621 39.8082 5.82648 41.1852 5.82648C42.9138 5.82648 44.6423 6.53278 45.4627 8.53395C46.7518 6.47392 48.4218 5.88534 50.2968 5.88534C54.3985 5.88534 56.42 8.41624 56.42 12.7717V16.3582C55.4103 16.3499 54.3996 16.3457 53.388 16.3457C53.2072 16.3457 53.0264 16.3458 52.8457 16.3461V12.7717C52.8457 10.8588 52.0547 9.24025 50.121 9.24025C48.1874 9.24025 46.9862 10.9177 46.9862 12.8306V16.4012C45.7933 16.422 44.6019 16.4484 43.4118 16.4807V12.8306C43.4118 10.9177 42.4157 9.18139 40.4528 9.18139C38.5191 9.18139 37.3765 10.9177 37.3765 12.8306V16.6939ZM74.6983 16.9633V6.0921H71.2704L71.1532 8.09328C70.3329 6.65126 68.4872 5.73896 66.5535 5.73896C62.3346 5.70953 59.024 8.32871 59.024 13.3316C59.024 14.4778 59.1843 15.5001 59.4817 16.396C60.9111 16.4196 62.3385 16.4516 63.7638 16.4917C63.0404 15.7374 62.5984 14.6642 62.5984 13.3315C62.5984 10.5652 64.5027 8.94662 66.8759 8.94662C71.2962 8.94662 72.243 14.3802 69.7162 16.7078C71.3798 16.7818 73.0405 16.8669 74.6983 16.9633ZM80.9351 17.3794C79.755 17.2905 78.5733 17.2073 77.39 17.1297V6.06279H80.5835L80.8179 8.03453C82.2828 6.59251 83.7477 5.85679 85.5641 5.85679C88.9627 5.85679 91.6873 8.41711 91.6873 12.9786V18.3502C90.4976 18.2249 89.3062 18.1054 88.113 17.9917V13.008C88.113 10.8009 86.9118 9.12341 84.6266 9.12341C82.4293 9.12341 80.9351 10.9774 80.9351 13.1846V17.3794ZM104.7 19.9589C101.084 19.4451 97.4498 18.9848 93.7996 18.5788C93.7779 18.5565 93.7562 18.534 93.7345 18.5112L95.4923 15.9509C96.5177 17.0987 98.8616 17.9521 100.473 17.9815C101.821 18.011 103.08 17.3047 103.08 16.2452C103.08 15.2446 102.26 14.8326 100.209 14.7149C97.4846 14.5089 94.2325 13.5083 94.2325 10.2123C94.2325 6.85736 97.6897 5.6802 100.326 5.6802C102.582 5.6802 104.282 6.12163 105.952 7.59308L103.959 9.9474C102.934 8.97624 101.762 8.65253 100.385 8.65253C98.6858 8.65253 97.7482 9.18225 97.7482 10.0945C97.7482 11.0363 98.5979 11.566 100.444 11.6837C103.168 11.8603 106.625 12.4783 106.625 16.3335C106.625 17.7575 105.982 19.0723 104.7 19.9589ZM30.8762 17.0351C29.2848 17.1329 27.6962 17.2409 26.1104 17.3592C26.8806 16.6087 27.3311 15.5032 27.3311 14.2911V6.09178H30.8762V17.0351ZM21.5618 17.7272C20.126 17.8524 18.6926 17.986 17.2617 18.128C16.8223 17.1144 16.5789 15.8968 16.5789 14.4971V6.09178H20.1532V14.4677C20.1532 15.8621 20.6326 17.045 21.5618 17.7272Z" fill="black"/>
</svg>
