<svg width="108" height="21" viewBox="0 0 108 21" fill="none" xmlns="http://www.w3.org/2000/svg">
<path fill-rule="evenodd" clip-rule="evenodd" d="M4.19932 0.260361H0.625V20.5203C1.81456 20.3443 3.00601 20.174 4.19932 20.0096V13.4446C4.19932 11.2668 5.66421 9.47164 7.77365 9.47164C9.678 9.47164 11.055 10.5899 11.055 13.2386V19.1315C12.2447 18.9906 13.4361 18.8556 14.6293 18.7263V13.2091C14.6293 8.94192 12.8129 6.14616 8.71118 6.14616C7.0705 6.14616 5.48843 6.64646 4.19932 8.32391V0.260361ZM38.0015 16.9542C36.8085 17.0062 35.6171 17.064 34.4272 17.1275V6.32228H37.7378L38.0015 8.08802C38.7632 6.61657 40.4332 6.08684 41.8102 6.08684C43.5388 6.08684 45.2673 6.79314 46.0877 8.79431C47.3768 6.73428 49.0468 6.1457 50.9218 6.1457C55.0235 6.1457 57.045 8.6766 57.045 13.0321V16.6185C56.0353 16.6102 55.0246 16.6061 54.013 16.6061C53.8322 16.6061 53.6514 16.6062 53.4707 16.6065V13.0321C53.4707 11.1192 52.6797 9.50061 50.746 9.50061C48.8124 9.50061 47.6112 11.1781 47.6112 13.091V16.6616C46.4183 16.6823 45.2269 16.7088 44.0368 16.741V13.091C44.0368 11.1781 43.0407 9.44175 41.0778 9.44175C39.1441 9.44175 38.0015 11.1781 38.0015 13.091V16.9542ZM75.3233 17.2237V6.35247H71.8954L71.7782 8.35364C70.9579 6.91162 69.1122 5.99932 67.1785 5.99932C62.9596 5.96989 59.649 8.58907 59.649 13.592C59.649 14.7382 59.8093 15.7605 60.1067 16.6564C61.5361 16.68 62.9635 16.7119 64.3888 16.7521C63.6654 15.9977 63.2234 14.9246 63.2234 13.5919C63.2234 10.8256 65.1277 9.20698 67.5009 9.20698C71.9212 9.20698 72.868 14.6406 70.3412 16.9682C72.0048 17.0421 73.6655 17.1273 75.3233 17.2237ZM81.5601 17.6398C80.38 17.5509 79.1983 17.4676 78.015 17.3901V6.32315H81.2085L81.4429 8.2949C82.9078 6.85287 84.3727 6.11715 86.1891 6.11715C89.5877 6.11715 92.3123 8.67747 92.3123 13.239V18.6105C91.1226 18.4853 89.9312 18.3658 88.738 18.2521V13.2684C88.738 11.0612 87.5368 9.38377 85.2516 9.38377C83.0543 9.38377 81.5601 11.2378 81.5601 13.445V17.6398ZM105.325 20.2192C101.709 19.7054 98.0748 19.2451 94.4246 18.8392C94.4029 18.8168 94.3812 18.7943 94.3595 18.7716L96.1173 16.2113C97.1427 17.359 99.4866 18.2125 101.098 18.2419C102.446 18.2713 103.705 17.565 103.705 16.5056C103.705 15.505 102.885 15.093 100.834 14.9753C98.1096 14.7693 94.8575 13.7687 94.8575 10.4726C94.8575 7.11772 98.3147 5.94056 100.951 5.94056C103.207 5.94056 104.907 6.38199 106.577 7.85344L104.584 10.2078C103.559 9.23661 102.387 8.91289 101.01 8.91289C99.3108 8.91289 98.3732 9.44261 98.3732 10.3549C98.3732 11.2966 99.2229 11.8264 101.069 11.9441C103.793 12.1206 107.25 12.7387 107.25 16.5939C107.25 18.0179 106.607 19.3327 105.325 20.2192ZM31.5012 17.2955C29.9098 17.3932 28.3212 17.5013 26.7354 17.6196C27.5056 16.8691 27.9561 15.7635 27.9561 14.5515V6.35214H31.5012V17.2955ZM22.1868 17.9875C20.751 18.1128 19.3176 18.2464 17.8867 18.3883C17.4473 17.3748 17.2039 16.1571 17.2039 14.7575V6.35214H20.7782V14.7281C20.7782 16.1224 21.2576 17.3054 22.1868 17.9875Z" fill="white"/>
</svg>
